<?xml version="1.0" encoding="utf-8"?>
<svg width="153px" height="153px" viewBox="0 0 153 153" version="1.1" xmlns:xlink="http://www.w3.org/1999/xlink" xmlns="http://www.w3.org/2000/svg">
  <g id="brand-primary-logo">
    <path d="M0 0L153 0L153 153L0 153L0 0Z" id="Rectangle" fill="none" fill-rule="evenodd" stroke="none" />
    <g id="Group-17" transform="translate(11.859872 12.453488)">
      <g id="Group-3">
        <path d="M128.093 64.0465C128.093 99.418 99.418 128.093 64.0465 128.093C28.675 128.093 0 99.418 0 64.0465C0 28.675 28.675 0 64.0465 0C99.418 0 128.093 28.675 128.093 64.0465" id="Fill-1" fill="#FFFFFF" fill-rule="evenodd" stroke="none" />
      </g>
      <path d="M33.3487 0C14.9305 0 0 14.9311 0 33.3493C0 38.964 1.38945 44.2532 3.83983 48.8954L8.18965 48.8954L8.18965 45.1694L11.9927 45.1694L11.9927 43.1608L15.5609 43.1608L15.5609 32.7983L9.9278 32.7983L9.9278 31.8602L8.6445 31.8602L8.6445 29.1821L33.3487 15.8948L58.0167 29.1898L57.9834 31.8685L56.7689 31.8216L56.7689 32.7983L51.1364 32.7983L51.1364 43.1608L54.7046 43.1608L54.7046 45.1694L58.5077 45.1694L58.5077 48.8954L62.8575 48.8954C65.3085 44.2532 66.6973 38.964 66.6973 33.3493C66.6973 14.9311 51.7668 0 33.3487 0" transform="translate(30.697847 30.697197)" id="Fill-4" fill="#FFCD00" fill-rule="evenodd" stroke="none" />
      <path d="M0 10.5736L4.85627 10.5736L4.85627 0L0 0L0 10.5736Z" transform="translate(61.734905 63.49559)" id="Fill-6" fill="#FFCE01" fill-rule="evenodd" stroke="none" />
      <path d="M0 10.5736L4.85627 10.5736L4.85627 0L0 0L0 10.5736Z" transform="translate(51.539055 63.49559)" id="Fill-8" fill="#FFCE01" fill-rule="evenodd" stroke="none" />
      <path d="M0 10.5736L4.85627 10.5736L4.85627 0L0 0L0 10.5736Z" transform="translate(71.93134 63.49559)" id="Fill-9" fill="#FFCE01" fill-rule="evenodd" stroke="none" />
      <path d="M0 2.14793L1.65691 2.14793L0.80829 0L0 2.14793Z" transform="translate(48.352505 105.85684)" id="Fill-10" fill="#162A53" fill-rule="evenodd" stroke="none" />
      <path d="M1.14513 0L0 3.04221L2.34837 3.04221L1.14513 0Z" transform="translate(45.487198 94.43551)" id="Fill-11" fill="#162A53" fill-rule="evenodd" stroke="none" />
      <path d="M1.45765 0.167826C1.27619 0.0954768 1.08286 0.0492209 0.878268 0.0290581C0.674268 0.00948837 0.381907 0 0 0L0 4.32729C0 4.57518 0.0124535 4.75605 0.0367675 4.86991C0.0610814 4.98318 0.132244 5.06976 0.250256 5.12906C0.368268 5.18777 0.550919 5.21683 0.799396 5.21683C1.53474 5.21683 2.05483 4.96005 2.35905 4.4453C2.66327 3.93056 2.81508 3.33872 2.81508 2.66979C2.81508 2.03111 2.69351 1.4962 2.44978 1.06507C2.20605 0.633349 1.87514 0.334465 1.45765 0.167826" transform="translate(56.258575 104.44954)" id="Fill-12" fill="#162A53" fill-rule="evenodd" stroke="none" />
      <path d="M0 2.14793L1.65691 2.14793L0.80829 0L0 2.14793Z" transform="translate(33.38863 105.85684)" id="Fill-13" fill="#162A53" fill-rule="evenodd" stroke="none" />
      <path d="M0 0.263895L3.11396 2.92776L4.12151 0L0 0.263895Z" transform="translate(15.4099455 47.478687)" id="Fill-14" fill="#162A53" fill-rule="evenodd" stroke="none" />
      <path d="M0 3.04221L2.34778 3.04221L1.14513 0L0 3.04221Z" transform="translate(88.82599 94.43557)" id="Fill-15" fill="#162A53" fill-rule="evenodd" stroke="none" />
      <path d="M112.14 48.9404C113.003 48.437 113.538 47.9584 113.745 47.5041C113.953 47.0499 113.929 46.445 113.674 45.6907L113.321 44.6469L104.781 47.5338C104.228 47.7206 103.875 47.9447 103.722 48.2051C103.568 48.4654 103.592 48.896 103.795 49.4961L103.901 49.808L102.911 50.1425L100.654 43.465L101.644 43.1306L101.74 43.4164C101.945 44.0219 102.19 44.3783 102.474 44.4845C102.758 44.59 103.171 44.5515 103.711 44.3688L112.252 41.4826L111.908 40.4661C111.704 39.8595 111.487 39.4366 111.26 39.1953C111.033 38.9539 110.692 38.8027 110.238 38.741C109.783 38.6799 109.281 38.7179 108.733 38.8573L108.392 37.8503L111.834 36.6874L115.922 48.7851L112.48 49.948L112.14 48.9404ZM101.421 97.8625L93.6502 97.8625L93.6502 97.2706C94.1863 97.2706 94.5321 97.1935 94.6862 97.0394C94.8404 96.8852 94.9175 96.6183 94.9175 96.2417L94.9175 90.7604C94.9175 90.5072 94.892 90.3109 94.8404 90.1721C94.7888 90.0328 94.6702 89.9249 94.4834 89.8478C94.2972 89.7707 94.0191 89.7315 93.6502 89.7315L93.6502 89.1397L98.0374 89.1397L98.0374 89.7315C97.6733 89.7315 97.3975 89.7677 97.2102 89.8406C97.0245 89.9142 96.9018 90.0203 96.8443 90.1591C96.7861 90.2985 96.7577 90.4989 96.7577 90.7604L96.7577 95.7786C96.7577 96.1724 96.7766 96.4558 96.8152 96.6278C96.8537 96.7986 96.9587 96.9291 97.1301 97.0168C97.3015 97.1046 97.5826 97.1485 97.9734 97.1485C98.4662 97.1485 98.8985 97.1111 99.2691 97.0364C99.6404 96.9605 99.9837 96.7612 100.298 96.4374C100.614 96.1136 100.81 95.6173 100.887 94.9484L101.479 94.9484L101.421 97.8625ZM92.8657 106.327C92.7838 106.54 92.6605 106.744 92.4956 106.939C92.3302 107.135 92.1226 107.294 91.8712 107.416C91.6203 107.539 91.3297 107.601 90.9994 107.601C90.6721 107.601 90.3477 107.529 90.0257 107.387C89.7031 107.245 89.4297 107.033 89.2055 106.751C89.1089 106.975 89.0466 107.182 89.0193 107.373L88.6018 107.373L88.6018 105.266L89.0193 105.266C89.0952 105.569 89.1996 105.853 89.333 106.12C89.4659 106.386 89.6544 106.615 89.8982 106.808C90.1419 107 90.4408 107.096 90.7948 107.096C91.1038 107.096 91.3511 107.012 91.5373 106.842C91.7235 106.672 91.8166 106.459 91.8166 106.202C91.8166 106.056 91.7881 105.929 91.7306 105.82C91.6731 105.711 91.5895 105.614 91.4809 105.527C91.3718 105.441 91.2224 105.349 91.0332 105.25C90.844 105.152 90.6282 105.048 90.3862 104.939C90.0138 104.763 89.7078 104.587 89.4688 104.408C89.2298 104.23 89.049 104.056 88.9268 103.888C88.804 103.72 88.7192 103.561 88.6724 103.409C88.6255 103.258 88.6018 103.105 88.6018 102.951C88.6018 102.675 88.6759 102.403 88.8242 102.135C88.9725 101.868 89.1901 101.648 89.4759 101.477C89.7618 101.306 90.0927 101.22 90.4681 101.22C90.7557 101.22 91.0297 101.285 91.29 101.413C91.5503 101.542 91.7757 101.718 91.9666 101.942C92.0212 101.815 92.071 101.636 92.1167 101.406L92.5431 101.406L92.5431 103.123L92.1167 103.123C91.8136 102.187 91.287 101.719 90.5363 101.719C90.2635 101.719 90.0452 101.792 89.8804 101.936C89.7149 102.079 89.6325 102.264 89.6325 102.492C89.6325 102.671 89.6841 102.825 89.7867 102.957C89.8899 103.089 90.0257 103.202 90.1935 103.296C90.3613 103.389 90.6329 103.524 91.0083 103.7C91.4626 103.915 91.8172 104.101 92.0728 104.258C92.329 104.415 92.5454 104.614 92.7227 104.853C92.8995 105.092 92.9878 105.381 92.9878 105.72C92.9878 105.911 92.9475 106.113 92.8657 106.327L92.8657 106.327ZM89.1326 96.4534L88.721 95.424L85.8911 95.424L85.6782 95.9903C85.5584 96.3082 85.4985 96.5371 85.4985 96.6794C85.4985 96.9362 85.5982 97.0987 85.7968 97.168C85.9967 97.2362 86.2291 97.2706 86.4954 97.2706L86.4954 97.8625L83.4911 97.8625L83.4911 97.2706C83.7319 97.2706 83.9347 97.2256 84.1026 97.1348C84.2692 97.0453 84.4293 96.8751 84.5817 96.6248C84.7341 96.3734 84.8978 96.0182 85.0733 95.5598L87.5889 88.9725L88.1998 88.9725L90.8565 95.7655C91.0492 96.2453 91.191 96.5709 91.2811 96.7399C91.3712 96.9089 91.4958 97.0399 91.6541 97.1319C91.8125 97.2244 92.036 97.2706 92.323 97.2706L92.323 97.8625L88.2128 97.8625L88.2128 97.2706C88.5603 97.2706 88.8129 97.2457 88.9719 97.1965C89.1302 97.1473 89.2097 97.0305 89.2097 96.846C89.2097 96.7173 89.1842 96.5869 89.1326 96.4534L89.1326 96.4534ZM86.6573 107.487L81.1718 107.487L81.1718 107.069C81.5502 107.069 81.7939 107.015 81.903 106.905C82.0122 106.796 82.0667 106.609 82.0667 106.342L82.0667 102.474C82.0667 102.298 82.0495 102.161 82.0145 102.063C81.9795 101.964 81.8983 101.887 81.7696 101.831C81.6409 101.775 81.4417 101.747 81.1718 101.747L81.1718 101.329L86.2801 101.329L86.362 102.928L85.9445 102.928C85.8502 102.573 85.7423 102.32 85.6201 102.167C85.4973 102.014 85.3592 101.921 85.2068 101.886C85.0538 101.851 84.8243 101.833 84.5189 101.833L83.3654 101.833L83.3654 104.009L83.9923 104.009C84.2069 104.009 84.3676 103.99 84.4732 103.952C84.5793 103.914 84.6535 103.842 84.6956 103.736C84.7383 103.63 84.7667 103.464 84.7822 103.236L85.218 103.236L85.218 105.284L84.7999 105.284C84.7881 105.057 84.7579 104.89 84.7092 104.782C84.6612 104.675 84.5841 104.603 84.4797 104.567C84.3754 104.53 84.2158 104.513 84.0012 104.513L83.3654 104.513L83.3654 105.961C83.3654 106.203 83.3714 106.38 83.3832 106.492C83.3957 106.604 83.4283 106.697 83.4811 106.771C83.5339 106.846 83.6204 106.9 83.7396 106.933C83.8594 106.966 84.0296 106.983 84.2508 106.983L84.746 106.983C84.9547 106.983 85.1534 106.956 85.3426 106.903C85.5317 106.85 85.7174 106.714 85.8988 106.495C86.0803 106.275 86.2078 105.931 86.2801 105.461L86.7071 105.461L86.6573 107.487ZM80.5948 96.782C80.2693 97.12 79.8962 97.4124 79.4758 97.6567C79.0553 97.901 78.4872 98.0232 77.7709 98.0232C76.9863 98.0232 76.258 97.8322 75.5873 97.4509C74.916 97.0684 74.3811 96.5359 73.9826 95.8527C73.5835 95.1684 73.3843 94.3974 73.3843 93.5399C73.3843 92.9303 73.4922 92.3491 73.7086 91.7964C73.9257 91.2431 74.2341 90.7563 74.6349 90.3364C75.0364 89.916 75.5144 89.5856 76.0701 89.3455C76.6245 89.1053 77.233 88.9855 77.8936 88.9855C78.983 88.9855 79.8832 89.3413 80.5948 90.0535C80.6891 89.8685 80.7816 89.6011 80.8718 89.2488L81.4506 89.2488L81.5531 92.4594L80.9358 92.4594C80.8243 91.9145 80.6233 91.43 80.3309 91.0053C80.0398 90.5807 79.6934 90.2564 79.2925 90.031C78.8917 89.8057 78.4724 89.693 78.0347 89.693C77.5461 89.693 77.1061 89.827 76.7159 90.0945C76.3262 90.3625 76.0202 90.7711 75.7996 91.3202C75.5784 91.8694 75.4681 92.5531 75.4681 93.3727C75.4681 94.1703 75.5607 94.8339 75.7451 95.3635C75.9295 95.8925 76.1578 96.2933 76.43 96.5632C76.7022 96.8336 76.9756 97.0168 77.2496 97.1135C77.5241 97.2096 77.7815 97.2576 78.0223 97.2576C78.5495 97.2576 79.0245 97.1165 79.4467 96.8336C79.869 96.5507 80.2159 96.1931 80.4857 95.7626C80.7561 95.3315 80.9358 94.9033 81.026 94.4793L81.6439 94.4793L81.6439 97.7723L81.039 97.7723C80.9489 97.4029 80.8006 97.0732 80.5948 96.782L80.5948 96.782ZM79.7498 101.747C79.4894 101.747 79.2931 101.773 79.1597 101.824C79.0269 101.875 78.9397 101.951 78.8988 102.049C78.8579 102.148 78.8377 102.289 78.8377 102.474L78.8377 106.342C78.8377 106.518 78.8573 106.656 78.8964 106.755C78.9355 106.856 79.0198 106.933 79.1484 106.987C79.2771 107.042 79.4776 107.069 79.7498 107.069L79.7498 107.487L76.6263 107.487L76.6263 107.069C76.8867 107.069 77.0835 107.044 77.2164 106.994C77.3498 106.944 77.4364 106.869 77.4773 106.769C77.5182 106.669 77.539 106.527 77.539 106.342L77.539 102.474C77.539 102.208 77.4832 102.02 77.3729 101.91C77.2626 101.801 77.0136 101.747 76.6263 101.747L76.6263 101.329L79.7498 101.329L79.7498 101.747ZM75.2084 101.747C74.83 101.747 74.5851 101.803 74.4748 101.913C74.3645 102.024 74.3094 102.211 74.3094 102.474L74.3094 106.342C74.3094 106.509 74.3278 106.643 74.3639 106.747C74.4001 106.85 74.4837 106.929 74.6154 106.985C74.747 107.041 74.9451 107.069 75.2084 107.069L75.2084 107.487L72.1205 107.487L72.1205 107.069C72.3868 107.069 72.5819 107.042 72.7064 106.99C72.8304 106.936 72.9116 106.859 72.9496 106.758C72.9869 106.656 73.0059 106.518 73.0059 106.342L73.0059 102.483L70.6813 107.487L70.4043 107.487L68.0476 102.483L68.0476 106.147C68.0476 106.341 68.0548 106.489 68.0684 106.592C68.082 106.695 68.1164 106.783 68.1728 106.856C68.2285 106.928 68.3169 106.982 68.4379 107.016C68.5588 107.051 68.7272 107.069 68.9419 107.069L68.9419 107.487L66.6629 107.487L66.6629 107.069C66.8806 107.069 67.0496 107.051 67.1688 107.015C67.2886 106.978 67.3757 106.924 67.4303 106.851C67.4843 106.779 67.5181 106.691 67.5299 106.59C67.5418 106.489 67.5483 106.341 67.5483 106.147L67.5483 102.66C67.5483 102.4 67.5347 102.212 67.5074 102.097C67.4801 101.982 67.4054 101.895 67.2826 101.836C67.1599 101.777 66.9535 101.747 66.6629 101.747L66.6629 101.329L68.9146 101.329L70.9582 105.675L73.0059 101.329L75.2084 101.329L75.2084 101.747ZM65.2498 96.2192C65.1341 96.5217 64.9592 96.811 64.7255 97.088C64.4919 97.3637 64.1971 97.5891 63.8407 97.7628C63.4849 97.9366 63.0734 98.0232 62.6061 98.0232C62.1429 98.0232 61.6833 97.9224 61.2261 97.7207C60.7695 97.5191 60.3828 97.2196 60.065 96.8205C59.9274 97.1378 59.8396 97.4314 59.8011 97.7012L59.2092 97.7012L59.2092 94.7165L59.8011 94.7165C59.9084 95.1452 60.0561 95.5491 60.2452 95.9257C60.4344 96.304 60.7007 96.6284 61.0458 96.9006C61.391 97.1728 61.815 97.3092 62.3161 97.3092C62.7537 97.3092 63.1042 97.1894 63.3687 96.9492C63.632 96.7085 63.7636 96.4066 63.7636 96.0419C63.7636 95.8361 63.7227 95.6558 63.6415 95.5011C63.5602 95.3469 63.4422 95.2093 63.288 95.0865C63.1333 94.965 62.9221 94.8339 62.6541 94.6945C62.386 94.5546 62.0806 94.4081 61.7379 94.2539C61.2101 94.0055 60.7766 93.754 60.438 93.5014C60.0993 93.2476 59.8432 93.0027 59.6694 92.7648C59.4957 92.5265 59.3759 92.3005 59.3094 92.0858C59.2424 91.8712 59.2092 91.6547 59.2092 91.4359C59.2092 91.0463 59.3148 90.6608 59.5247 90.2819C59.7346 89.9023 60.0424 89.591 60.448 89.3484C60.8531 89.1065 61.3216 88.9855 61.8529 88.9855C62.2609 88.9855 62.6488 89.0762 63.0176 89.2589C63.3865 89.441 63.7061 89.6906 63.9759 90.0079C64.053 89.8282 64.1242 89.575 64.1882 89.2488L64.7931 89.2488L64.7931 91.6802L64.1882 91.6802C63.7595 90.3548 63.0135 89.693 61.9496 89.693C61.5635 89.693 61.254 89.7944 61.0203 89.999C60.7867 90.2024 60.6698 90.4651 60.6698 90.7865C60.6698 91.0392 60.7428 91.2598 60.8887 91.446C61.034 91.6328 61.2261 91.7923 61.4645 91.9251C61.7017 92.058 62.0872 92.2489 62.6191 92.4974C63.2619 92.8016 63.7654 93.0661 64.1272 93.2885C64.4895 93.5121 64.7961 93.7926 65.0469 94.1318C65.2984 94.4698 65.4235 94.8802 65.4235 95.3599C65.4235 95.6297 65.3654 95.9168 65.2498 96.2192L65.2498 96.2192ZM65.0179 107.487L59.5324 107.487L59.5324 107.069C59.9108 107.069 60.1545 107.015 60.2636 106.905C60.3727 106.796 60.4273 106.609 60.4273 106.342L60.4273 102.474C60.4273 102.298 60.4101 102.161 60.3751 102.063C60.3401 101.964 60.2589 101.887 60.1302 101.831C60.0009 101.775 59.8022 101.747 59.5324 101.747L59.5324 101.329L64.6407 101.329L64.7226 102.928L64.3051 102.928C64.2108 102.573 64.1028 102.32 63.9801 102.167C63.8573 102.014 63.7198 101.921 63.5668 101.886C63.4138 101.851 63.1848 101.833 62.8794 101.833L61.726 101.833L61.726 104.009L62.3528 104.009C62.5675 104.009 62.7282 103.99 62.8338 103.952C62.9399 103.914 63.0141 103.842 63.0562 103.736C63.0989 103.63 63.1273 103.464 63.1427 103.236L63.5786 103.236L63.5786 105.284L63.1605 105.284C63.1487 105.057 63.1184 104.89 63.0698 104.782C63.0218 104.675 62.9447 104.603 62.8403 104.567C62.7359 104.53 62.5764 104.513 62.3617 104.513L61.726 104.513L61.726 105.961C61.726 106.203 61.7319 106.38 61.7438 106.492C61.7563 106.604 61.7889 106.697 61.8416 106.771C61.8944 106.846 61.981 106.9 62.1002 106.933C62.22 106.966 62.3902 106.983 62.6114 106.983L63.1066 106.983C63.3153 106.983 63.514 106.956 63.7031 106.903C63.8923 106.85 64.0779 106.714 64.2594 106.495C64.4409 106.275 64.5684 105.931 64.6407 105.461L65.0677 105.461L65.0179 107.487ZM58.0724 84.7027L28.4841 84.7027C28.27 84.7027 28.0968 84.5295 28.0968 84.3149C28.0968 84.1014 28.27 83.9276 28.4841 83.9276L58.0724 83.9276C58.2865 83.9276 58.4596 84.1014 58.4596 84.3149C58.4596 84.5295 58.2865 84.7027 58.0724 84.7027L58.0724 84.7027ZM57.6336 105.668C57.4817 106.027 57.2866 106.326 57.0476 106.565C56.8087 106.804 56.5531 106.984 56.2803 107.105C55.7056 107.36 55.0017 107.487 54.1691 107.487L51.3582 107.487L51.3582 107.069C51.6185 107.069 51.8154 107.044 51.9488 106.994C52.0817 106.944 52.1688 106.869 52.2098 106.769C52.2507 106.669 52.2708 106.527 52.2708 106.342L52.2708 102.455C52.2708 102.189 52.2163 102.001 52.1078 101.892C51.9986 101.784 51.749 101.729 51.3582 101.729L51.3582 101.302L52.6794 101.275C52.7251 101.275 52.9095 101.272 53.2333 101.266C53.5571 101.26 53.7451 101.256 53.7967 101.256C54.3019 101.256 54.7313 101.284 55.0836 101.338C55.4364 101.393 55.7596 101.481 56.0531 101.601C56.323 101.711 56.5709 101.863 56.798 102.058C57.0251 102.253 57.2167 102.476 57.3726 102.726C57.5286 102.976 57.6484 103.247 57.7332 103.541C57.818 103.834 57.8601 104.142 57.8601 104.463C57.8601 104.908 57.7848 105.31 57.6336 105.668L57.6336 105.668ZM50.7616 97.7012L50.7616 94.7165L51.3534 94.7165C51.4602 95.1452 51.6084 95.5491 51.797 95.9257C51.9862 96.304 52.2531 96.6284 52.5976 96.9006C52.9433 97.1728 53.3668 97.3092 53.8685 97.3092C54.3061 97.3092 54.6566 97.1894 54.9205 96.9492C55.1838 96.7085 55.316 96.4066 55.316 96.0419C55.316 95.8361 55.2751 95.6558 55.1939 95.5011C55.112 95.3469 54.994 95.2093 54.8398 95.0865C54.685 94.965 54.4745 94.8339 54.2059 94.6945C53.9384 94.5546 53.633 94.4081 53.2897 94.2539C52.7625 94.0055 52.329 93.754 51.9898 93.5014C51.6517 93.2476 51.395 93.0027 51.2212 92.7648C51.048 92.5265 50.9277 92.3005 50.8612 92.0858C50.7948 91.8712 50.7616 91.6547 50.7616 91.4359C50.7616 91.0463 50.8666 90.6608 51.0771 90.2819C51.287 89.9023 51.5942 89.591 51.9998 89.3484C52.4049 89.1065 52.874 88.9855 53.4053 88.9855C53.8133 88.9855 54.2005 89.0762 54.57 89.2589C54.9383 89.441 55.2579 89.6906 55.5283 90.0079C55.6054 89.8282 55.676 89.575 55.7406 89.2488L56.3449 89.2488L56.3449 91.6802L55.7406 91.6802C55.3119 90.3548 54.5658 89.693 53.502 89.693C53.1159 89.693 52.8064 89.7944 52.5721 89.999C52.3385 90.2024 52.2216 90.4651 52.2216 90.7865C52.2216 91.0392 52.2946 91.2598 52.4405 91.446C52.5863 91.6328 52.7779 91.7923 53.0163 91.9251C53.2541 92.058 53.639 92.2489 54.1709 92.4974C54.8137 92.8016 55.3166 93.0661 55.6795 93.2885C56.0419 93.5121 56.3485 93.7926 56.5987 94.1318C56.8502 94.4698 56.9753 94.8802 56.9753 95.3599C56.9753 95.6297 56.9178 95.9168 56.8021 96.2192C56.6859 96.5217 56.511 96.811 56.2773 97.088C56.0437 97.3637 55.7489 97.5891 55.3931 97.7628C55.0367 97.9366 54.6252 98.0232 54.1584 98.0232C53.6947 98.0232 53.2351 97.9224 52.7779 97.7207C52.3218 97.5191 51.9346 97.2196 51.6173 96.8205C51.4798 97.1378 51.392 97.4314 51.3534 97.7012L50.7616 97.7012ZM50.0316 107.487L47.1299 107.487L47.1299 107.069C47.3748 107.069 47.5539 107.051 47.666 107.016C47.7781 106.982 47.8338 106.9 47.8338 106.769C47.8338 106.678 47.8155 106.586 47.7793 106.492L47.4887 105.766L45.4908 105.766L45.3414 106.165C45.2566 106.389 45.2139 106.551 45.2139 106.651C45.2139 106.833 45.2838 106.948 45.425 106.996C45.5655 107.045 45.7298 107.069 45.9178 107.069L45.9178 107.487L43.7971 107.487L43.7971 107.069C43.9667 107.069 44.1108 107.037 44.2289 106.974C44.3469 106.91 44.4595 106.79 44.5669 106.613C44.6742 106.436 44.7904 106.185 44.9144 105.861L46.6893 101.211L47.121 101.211L48.9968 106.006C49.1326 106.345 49.2328 106.575 49.2962 106.694C49.3597 106.814 49.4475 106.906 49.5595 106.971C49.6716 107.037 49.8288 107.069 50.0316 107.069L50.0316 107.487ZM43.1567 97.8625L40.153 97.8625L40.153 97.2706C40.3926 97.2706 40.5966 97.2256 40.7638 97.1348C40.9311 97.0453 41.0906 96.8751 41.243 96.6248C41.3954 96.3734 41.5591 96.0182 41.7352 95.5598L44.2502 88.9725L44.8616 88.9725L47.5178 95.7655C47.7111 96.2453 47.8522 96.5709 47.9424 96.7399C48.0325 96.9089 48.157 97.0399 48.3154 97.1319C48.4743 97.2244 48.6973 97.2706 48.9849 97.2706L48.9849 97.8625L44.8741 97.8625L44.8741 97.2706C45.2216 97.2706 45.4748 97.2457 45.6331 97.1965C45.7915 97.1473 45.8715 97.0305 45.8715 96.846C45.8715 96.7173 45.8454 96.5869 45.7944 96.4534L45.3823 95.424L42.5518 95.424L42.3395 95.9903C42.2197 96.3082 42.1592 96.5371 42.1592 96.6794C42.1592 96.9362 42.2594 97.0987 42.4587 97.168C42.6585 97.2362 42.8904 97.2706 43.1567 97.2706L43.1567 97.8625ZM42.1118 107.423L41.6848 107.423C41.6213 107.163 41.517 106.93 41.3717 106.724C41.1416 106.963 40.8783 107.169 40.5812 107.341C40.2847 107.514 39.8832 107.601 39.3779 107.601C38.824 107.601 38.3105 107.466 37.8361 107.196C37.3622 106.927 36.9851 106.55 36.704 106.068C36.4223 105.585 36.2812 105.04 36.2812 104.436C36.2812 104.006 36.3577 103.595 36.5107 103.205C36.6637 102.814 36.8813 102.471 37.1642 102.174C37.447 101.877 37.7851 101.644 38.1771 101.475C38.569 101.305 38.9978 101.22 39.4639 101.22C40.2331 101.22 40.8688 101.472 41.3717 101.974C41.4381 101.844 41.5033 101.655 41.5668 101.406L41.9754 101.406L42.0483 103.672L41.6124 103.672C41.5336 103.288 41.3912 102.946 41.1855 102.646C40.9797 102.346 40.7348 102.117 40.4519 101.958C40.169 101.8 39.8725 101.719 39.5641 101.719C39.219 101.719 38.9088 101.814 38.6331 102.004C38.3579 102.193 38.1421 102.482 37.9861 102.869C37.8301 103.257 37.7525 103.739 37.7525 104.318C37.7525 104.88 37.8177 105.349 37.9476 105.723C38.078 106.097 38.2393 106.379 38.4315 106.569C38.6236 106.76 38.8163 106.889 39.0103 106.958C39.2036 107.026 39.3856 107.06 39.5546 107.06C39.9271 107.06 40.2627 106.96 40.561 106.76C40.8587 106.56 41.1036 106.308 41.2946 106.004C41.4849 105.7 41.6124 105.398 41.6759 105.098L42.1118 105.098L42.1118 107.423ZM32.1359 90.1721C32.0843 90.0328 31.9651 89.9249 31.7783 89.8478C31.5921 89.7707 31.3146 89.7315 30.9457 89.7315L30.9457 89.1397L35.3323 89.1397L35.3323 89.7315C34.9682 89.7315 34.693 89.7677 34.5056 89.8406C34.3194 89.9142 34.1973 90.0203 34.1398 90.1591C34.081 90.2985 34.0526 90.4989 34.0526 90.7604L34.0526 95.7786C34.0526 96.1724 34.0722 96.4558 34.1101 96.6278C34.1492 96.7986 34.2542 96.9291 34.4256 97.0168C34.597 97.1046 34.8781 97.1485 35.2683 97.1485C35.7617 97.1485 36.1934 97.1111 36.5646 97.0364C36.9353 96.9605 37.2786 96.7612 37.5935 96.4374C37.909 96.1136 38.1053 95.6173 38.1824 94.9484L38.7742 94.9484L38.7161 97.8625L30.9457 97.8625L30.9457 97.2706C31.4818 97.2706 31.827 97.1935 31.9811 97.0394C32.1359 96.8852 32.213 96.6183 32.213 96.2417L32.213 90.7604C32.213 90.5072 32.1869 90.3109 32.1359 90.1721L32.1359 90.1721ZM35.0678 107.487L32.1662 107.487L32.1662 107.069C32.4111 107.069 32.5902 107.051 32.7017 107.016C32.8138 106.982 32.8701 106.9 32.8701 106.769C32.8701 106.678 32.8517 106.586 32.8155 106.492L32.525 105.766L30.5271 105.766L30.377 106.165C30.2928 106.389 30.2501 106.551 30.2501 106.651C30.2501 106.833 30.3201 106.948 30.4612 106.996C30.6018 107.045 30.766 107.069 30.954 107.069L30.954 107.487L28.8334 107.487L28.8334 107.069C29.003 107.069 29.1471 107.037 29.2651 106.974C29.3831 106.91 29.4952 106.79 29.6031 106.613C29.7105 106.436 29.8267 106.185 29.9506 105.861L31.7256 101.211L32.1567 101.211L34.0324 106.006C34.1688 106.345 34.269 106.575 34.3325 106.694C34.3959 106.814 34.4837 106.906 34.5958 106.971C34.7073 107.037 34.865 107.069 35.0678 107.069L35.0678 107.487ZM27.8502 96.782C27.524 97.12 27.151 97.4124 26.7305 97.6567C26.3101 97.901 25.7425 98.0232 25.0262 98.0232C24.241 98.0232 23.5128 97.8322 22.8421 97.4509C22.1714 97.0684 21.6359 96.5359 21.2373 95.8527C20.8382 95.1684 20.639 94.3974 20.639 93.5399C20.639 92.9303 20.7469 92.3491 20.9634 91.7964C21.1804 91.2431 21.4894 90.7563 21.8897 90.3364C22.2912 89.916 22.7697 89.5856 23.3248 89.3455C23.8799 89.1053 24.4877 88.9855 25.1483 88.9855C26.2377 88.9855 27.1379 89.3413 27.8502 90.0535C27.9444 89.8685 28.0364 89.6011 28.1265 89.2488L28.7053 89.2488L28.8085 92.4594L28.1911 92.4594C28.0797 91.9145 27.878 91.43 27.5863 91.0053C27.2945 90.5807 26.9482 90.2564 26.5473 90.031C26.1464 89.8057 25.7271 89.693 25.2901 89.693C24.8008 89.693 24.3608 89.827 23.9712 90.0945C23.581 90.3625 23.275 90.7711 23.0544 91.3202C22.8338 91.8694 22.7229 92.5531 22.7229 93.3727C22.7229 94.1703 22.8154 94.8339 22.9998 95.3635C23.1842 95.8925 23.4126 96.2933 23.6853 96.5632C23.957 96.8336 24.2303 97.0168 24.5049 97.1135C24.7795 97.2096 25.0363 97.2576 25.277 97.2576C25.8042 97.2576 26.2792 97.1165 26.7015 96.8336C27.1237 96.5507 27.4706 96.1931 27.7404 95.7626C28.0109 95.3315 28.1911 94.9033 28.2807 94.4793L28.8986 94.4793L28.8986 97.7723L28.2937 97.7723C28.2036 97.4029 28.0559 97.0732 27.8502 96.782L27.8502 96.782ZM18.883 52.7897L17.8957 52.4493C18.1566 51.6909 17.729 50.8304 16.6135 49.8691L8.53776 42.9414L8.89594 41.9001L19.5401 41.3325C20.5939 41.2768 21.2664 41.1303 21.5576 40.8919C21.8488 40.6535 22.0421 40.3956 22.1381 40.1162L23.1255 40.456L21.0654 46.4444L20.0774 46.1052C20.2636 45.5649 20.3271 45.2121 20.2683 45.0455C20.209 44.88 20.0993 44.7691 19.9398 44.714C19.7975 44.6647 19.5917 44.6541 19.3237 44.6813L19.0082 44.7015L18.0077 44.746L16.731 48.4565L17.2481 48.893C17.6122 49.2043 17.8802 49.3894 18.0522 49.4487C18.3428 49.5483 18.5794 49.5204 18.7627 49.3644C18.9459 49.2085 19.1137 48.9078 19.2667 48.463L20.2547 48.8028L18.883 52.7897ZM20.7149 23.9374C20.7736 22.8777 21.1715 21.984 21.9081 21.2563C22.679 20.4925 23.5911 20.1035 24.6425 20.0869C24.5992 19.8651 24.4699 19.5876 24.2541 19.2525L25.0238 18.4922L27.6705 21.1686L26.9209 21.9098C26.2004 21.4485 25.4632 21.2118 24.7095 21.1982C23.9552 21.1858 23.3438 21.4105 22.8753 21.8737C22.523 22.2218 22.3404 22.5972 22.3273 22.9986C22.3137 23.3995 22.453 23.7482 22.7436 24.0424C22.969 24.2695 23.2441 24.4142 23.5697 24.4764C23.8959 24.5381 24.2351 24.5197 24.5879 24.4219C24.9414 24.324 25.656 24.0827 26.7317 23.6984C27.7007 23.358 28.4645 23.154 29.0237 23.0858C29.583 23.0182 30.1398 23.0787 30.6931 23.2679C31.247 23.4576 31.7374 23.769 32.1656 24.2013C32.959 25.0042 33.3232 25.9661 33.2573 27.0852C33.1909 28.2054 32.7473 29.1708 31.9266 29.9827C31.4587 30.4458 30.903 30.8004 30.2608 31.0477C29.618 31.295 29.0024 31.3881 28.4123 31.327C28.5084 31.6295 28.675 31.9497 28.9128 32.2883L28.1099 33.0824L25.0398 29.9773L25.8428 29.1839C26.9831 29.8907 27.9729 30.2222 28.8114 30.1784C29.65 30.1345 30.3278 29.8558 30.8455 29.344C31.2292 28.965 31.4225 28.5493 31.4249 28.0963C31.4273 27.6438 31.2766 27.2637 30.9718 26.9565C30.756 26.7376 30.4683 26.59 30.1096 26.5123C29.7508 26.4346 29.1708 26.5265 28.3714 26.7886C26.8331 27.2951 25.7657 27.607 25.1685 27.7256C24.5713 27.8442 23.9777 27.8241 23.3888 27.6657C22.8 27.5074 22.2651 27.1848 21.7835 26.6985C21.012 25.9181 20.6556 24.9977 20.7149 23.9374L20.7149 23.9374ZM41.3444 10.5534C42.0697 8.90958 43.4223 7.78521 45.403 7.1821C46.8856 6.73022 48.2917 6.83697 49.6218 7.49996C49.6663 7.15186 49.6823 6.75098 49.6681 6.29613L50.6584 5.99428L52.1582 10.4657L51.1678 10.7675C50.5013 9.63248 49.7375 8.85384 48.877 8.43042C48.0171 8.00759 47.1282 7.93524 46.2096 8.21515C45.1534 8.53716 44.4845 9.19305 44.2028 10.184C43.9211 11.1749 44.048 12.5496 44.5835 14.3079C44.9601 15.5443 45.3544 16.4949 45.7672 17.1597C46.1793 17.8245 46.7285 18.2657 47.4146 18.4822C48.1001 18.6998 48.7797 18.7063 49.4516 18.5011C50.34 18.2307 51.038 17.6798 51.5456 16.8496C52.0538 16.0199 52.2673 14.9246 52.1878 13.5654L53.1871 13.2612L54.583 17.8429L53.5838 18.1471C53.3217 17.6964 53.0317 17.3578 52.7138 17.133C52.0105 18.4626 50.828 19.38 49.1652 19.887C47.2752 20.4629 45.575 20.3051 44.064 19.4144C42.5524 18.5243 41.5383 17.2297 41.0212 15.5307C40.5112 13.8566 40.6191 12.1973 41.3444 10.5534L41.3444 10.5534ZM69.2461 71.3852L74.1024 71.3852L74.1024 60.8116L69.2461 60.8116L69.2461 71.3852ZM59.0503 71.3852L63.9066 71.3852L63.9066 60.8116L59.0503 60.8116L59.0503 71.3852ZM48.8544 71.3852L53.7107 71.3852L53.7107 60.8116L48.8544 60.8116L48.8544 71.3852ZM61.4224 83.0339C62.1358 83.0339 62.714 83.6121 62.714 84.3255C62.714 85.0389 62.1358 85.6171 61.4224 85.6171C60.709 85.6171 60.1308 85.0389 60.1308 84.3255C60.1308 83.6121 60.709 83.0339 61.4224 83.0339L61.4224 83.0339ZM64.5328 84.7027C64.3187 84.7027 64.1455 84.5295 64.1455 84.3149C64.1455 84.1014 64.3187 83.9276 64.5328 83.9276L94.1211 83.9276C94.3352 83.9276 94.5083 84.1014 94.5083 84.3149C94.5083 84.5295 94.3352 84.7027 94.1211 84.7027L64.5328 84.7027ZM70.3587 96.8265C70.4144 96.9682 70.5336 97.0773 70.7157 97.155C70.8983 97.2321 71.1824 97.2706 71.5678 97.2706L71.5678 97.8625L67.1427 97.8625L67.1427 97.2706C67.511 97.2706 67.7897 97.2351 67.9789 97.1651C68.1674 97.0939 68.2908 96.9878 68.3483 96.846C68.4064 96.7049 68.4355 96.5027 68.4355 96.2417L68.4355 90.7604C68.4355 90.3833 68.3572 90.1176 68.2006 89.9634C68.0441 89.8086 67.6912 89.7315 67.1427 89.7315L67.1427 89.1397L71.5678 89.1397L71.5678 89.7315C71.1996 89.7315 70.9208 89.7677 70.7317 89.8406C70.5431 89.9142 70.4197 90.0203 70.3622 90.1591C70.3041 90.2985 70.275 90.4989 70.275 90.7604L70.275 96.2417C70.275 96.4902 70.3029 96.6853 70.3587 96.8265L70.3587 96.8265ZM101.121 61.3625C101.121 66.9096 99.9843 72.1911 97.9319 76.9875L86.5215 76.9875L86.5215 76.908L86.5215 73.1832L82.7178 73.1832L82.7178 71.1741L79.1496 71.1741L79.1496 60.8116L84.7828 60.8116L84.7828 59.8349L85.9967 59.8817L86.0299 57.203L61.3619 43.908L36.6577 57.1947L36.6577 59.8728L37.9416 59.8728L37.9416 60.8116L43.5742 60.8116L43.5742 71.1741L40.0059 71.1741L40.0059 73.1832L36.2023 73.1832L36.2023 76.908L36.2023 76.9875L24.7925 76.9875C22.7401 72.1911 21.6027 66.9096 21.6027 61.3625C21.6027 39.404 39.4034 21.6027 61.3619 21.6027C83.3204 21.6027 101.121 39.404 101.121 61.3625L101.121 61.3625ZM64.5939 16.5062L64.824 16.5548C65.4443 16.6859 65.8718 16.6562 66.1079 16.4659C66.3439 16.2755 66.5212 15.9007 66.6392 15.3421L68.2054 7.93999C68.3258 7.3695 68.3133 6.95201 68.1674 6.68634C68.0215 6.42185 67.6444 6.22496 67.0371 6.09628L66.807 6.04765L67.0193 5.04426L77.6528 7.29419L77.1529 10.5641L76.1216 10.3459C76.057 9.74278 75.9467 9.24938 75.7901 8.86688C75.6342 8.48438 75.4509 8.22108 75.241 8.07698C75.0311 7.93346 74.6527 7.80359 74.1066 7.68795L71.7777 7.19515L70.8663 11.5041L72.0262 11.7496C72.5783 11.8664 72.9668 11.8397 73.1921 11.6695C73.4175 11.4987 73.6072 11.1097 73.7614 10.5007L74.8016 10.7207L73.9061 14.956L72.866 14.736C72.8885 14.6572 72.9045 14.5996 72.9122 14.5629C72.9869 14.2071 72.9798 13.8684 72.8909 13.5482C72.8013 13.228 72.4467 13.0026 71.827 12.871L70.6302 12.6178L69.9773 15.7021C69.8528 16.2915 69.8048 16.6835 69.8344 16.8792C69.8635 17.0743 70.0129 17.2629 70.2821 17.445C70.5514 17.627 70.9867 17.7818 71.5886 17.9093C72.4046 18.0819 73.0261 18.1074 73.4524 17.9864C73.8788 17.8642 74.2981 17.5814 74.7097 17.136C75.1212 16.6906 75.4557 16.1943 75.7125 15.6463L76.7437 15.864L75.7943 19.9434L64.378 17.528L64.5939 16.5062ZM84.9743 23.0573C85.2803 23.3266 85.6118 23.4867 85.9682 23.5377C86.3246 23.5881 86.6194 23.5424 86.8524 23.4013C87.0855 23.2596 87.3873 22.9797 87.7562 22.5604L92.0597 17.6733C92.9184 16.6983 92.8906 15.8094 91.9773 15.0047L92.6682 14.2213L95.9019 17.0696L95.9873 27.5525L99.0782 24.0423C99.9991 22.9968 100.019 22.0866 99.1381 21.3115L99.8289 20.5275L103.268 23.5561L102.578 24.34C102.337 24.1289 102.055 23.9967 101.729 23.9439C101.403 23.8911 101.113 23.9344 100.857 24.0726C100.602 24.2114 100.302 24.4758 99.9576 24.8672L93.483 32.2184L92.5792 31.4225L92.5407 18.9501L88.6665 23.3497C88.0444 24.0554 87.7728 24.6229 87.8511 25.0517C87.9293 25.4804 88.1683 25.8706 88.5692 26.2229L87.8789 27.0063L84.284 23.8407L84.9743 23.0573ZM61.3619 0C27.4724 0 0 27.473 0 61.3625C0 95.252 27.4724 122.725 61.3619 122.725C95.2508 122.725 122.724 95.252 122.724 61.3625C122.724 27.473 95.2508 0 61.3619 0L61.3619 0Z" transform="translate(2.6845567 2.6840231)" id="Fill-16" fill="#142C54" fill-rule="evenodd" stroke="none" />
    </g>
  </g>
</svg>