<?xml version="1.0" encoding="utf-8"?>
<svg width="40px" height="40px" viewBox="0 0 40 40" version="1.1" xmlns:xlink="http://www.w3.org/1999/xlink" xmlns="http://www.w3.org/2000/svg">
  <defs>
    <filter id="filter_1">
      <feColorMatrix in="SourceGraphic" type="matrix" values="0 0 0 0 1 0 0 0 0 0.8039216 0 0 0 0 0 0 0 0 1 0" />
    </filter>
  </defs>
  <g id="briefcase-regular" filter="url(#filter_1)">
    <path d="M35 8L30 8L30 5.33333C30 2.3875 27.7617 0 25 0L15 0C12.2422 0 10 2.3875 10 5.33333L10 8L5 8C2.23828 8 0 10.3917 0 13.3333L0 34.6667C0 37.6125 2.23828 40 5 40L35 40C37.7617 40 40 37.6125 40 34.6667L40 13.3333C40 10.3917 37.7578 8 35 8ZM15 4L25 4C25.6904 4 26.25 4.59692 26.25 5.33333L26.25 8L13.75 8L13.75 5.33333C13.75 4.59667 14.3125 4 15 4ZM5 12L35 12C35.6875 12 36.25 12.6 36.25 13.3333L36.25 21.3333L3.75 21.3333L3.75 13.3333C3.75 12.6 4.3125 12 5 12ZM35 36L5 36C4.3125 36 3.75 35.4 3.75 34.6667L3.75 25.3334L15 25.3334L15 26.6667C15 28.1392 16.1195 29.3334 17.5 29.3334L22.5 29.3334C23.8805 29.3334 25 28.1392 25 26.6667L25 25.3334L36.25 25.3334L36.25 34.6667C36.25 35.4 35.6875 36 35 36Z" id="Shape" fill="#000000" stroke="none" />
  </g>
</svg>