<?xml version="1.0" encoding="utf-8"?>
<svg width="46px" height="40px" viewBox="0 0 46 40" version="1.1" xmlns:xlink="http://www.w3.org/1999/xlink" xmlns="http://www.w3.org/2000/svg">
  <defs>
    <filter id="filter_1">
      <feColorMatrix in="SourceGraphic" type="matrix" values="0 0 0 0 1 0 0 0 0 0.8039216 0 0 0 0 0 0 0 0 1 0" />
    </filter>
  </defs>
  <g id="chart-network-regular" filter="url(#filter_1)">
    <path d="M20.7 5C20.7 6.31641 20.2328 7.51406 19.4638 8.40625L21.3972 12.9063C22.2741 12.6406 23.1941 12.5 24.15 12.5C26.8884 12.5 29.4975 13.7109 31.3591 15.6797L36.9366 11.2266C36.8503 10.8359 36.8 10.4219 36.8 10C36.8 7.23828 38.8628 5 41.4 5C43.9372 5 46 7.23828 46 10C46 12.7578 43.9372 15 41.4 15C40.5159 15 39.6822 14.7266 38.9778 14.25L33.4003 18.7031C34.1047 20.2188 34.5 21.9375 34.5 23.75C34.5 25.1953 34.2484 26.5781 33.7884 27.8516L38.6328 31.0078C39.4019 30.375 40.3578 30 41.4 30C43.9372 30 46 32.2422 46 35C46 37.7578 43.9372 40 41.4 40C38.8628 40 36.8 37.7578 36.8 35C36.8 34.7344 36.8216 34.4766 36.8575 34.2266L32.0131 31.0625C30.0509 33.4766 27.2981 35 24.15 35C19.0181 35 14.7631 30.9453 13.8791 25.625L8.86219 25.625C8.18656 27.4609 6.53056 28.75 4.6 28.75C2.05922 28.75 0 26.5078 0 23.75C0 20.9922 2.05922 18.75 4.6 18.75C6.53056 18.75 8.18656 20.0391 8.86219 21.875L13.8791 21.875C14.4181 18.8203 16.0209 16.1797 18.2706 14.4922L16.3372 9.99219C16.2581 9.92969 16.1791 10 16.1 10C13.5628 10 11.5 7.76172 11.5 5C11.5 2.23828 13.5628 0 16.1 0C18.6372 0 20.7 2.23828 20.7 5L20.7 5ZM24.15 31.25C27.9594 31.25 31.05 27.8906 31.05 23.75C31.05 19.5391 27.9594 16.25 24.15 16.25C20.2759 16.25 17.25 19.5391 17.25 23.75C17.25 27.8906 20.2759 31.25 24.15 31.25Z" id="Shape" fill="#000000" stroke="none" />
  </g>
</svg>