<?xml version="1.0" encoding="utf-8"?>
<svg width="133px" height="133px" viewBox="0 0 133 133" version="1.1" xmlns:xlink="http://www.w3.org/1999/xlink" xmlns="http://www.w3.org/2000/svg">
  <g id="logo">
    <path d="M56.6627 113.325C87.9567 113.325 113.325 87.9567 113.325 56.6627C113.325 25.3688 87.9567 0 56.6627 0C25.3688 0 0 25.3688 0 56.6627C0 87.9567 25.3688 113.325 56.6627 113.325Z" transform="translate(9.443787 9.443787)" id="Oval" fill="#FFFFFF" fill-rule="evenodd" stroke="none" />
    <g id="brand-primary-logo">
      <path d="M0 0L133 0L133 133L0 133L0 0Z" id="Rectangle" fill="none" fill-rule="evenodd" stroke="none" />
      <g id="Group-17" transform="translate(10.309563 10.825582)">
        <g id="Group-3">
          <path d="M111.349 55.6744C111.349 86.4222 86.4222 111.349 55.6744 111.349C24.9267 111.349 0 86.4222 0 55.6744C0 24.9267 24.9267 0 55.6744 0C86.4222 0 111.349 24.9267 111.349 55.6744" id="Fill-1" fill="#FFFFFF" fill-rule="evenodd" stroke="none" />
        </g>
        <path d="M28.9894 0C12.9788 0 0 12.9794 0 28.9899C0 33.8707 1.20783 38.4684 3.33789 42.5038L7.11911 42.5038L7.11911 39.2649L10.425 39.2649L10.425 37.5189L13.5268 37.5189L13.5268 28.511L8.63005 28.511L8.63005 27.6954L7.5145 27.6954L7.5145 25.3674L28.9894 13.817L50.4328 25.3741L50.4039 27.7027L49.3482 27.6619L49.3482 28.511L44.4519 28.511L44.4519 37.5189L47.5537 37.5189L47.5537 39.2649L50.8596 39.2649L50.8596 42.5038L54.6408 42.5038C56.7714 38.4684 57.9787 33.8707 57.9787 28.9899C57.9787 12.9794 44.9999 0 28.9894 0" transform="translate(26.685059 26.684492)" id="Fill-4" fill="#FFCD00" fill-rule="evenodd" stroke="none" />
        <path d="M0 9.19143L4.22146 9.19143L4.22146 0L0 0L0 9.19143Z" transform="translate(53.664986 55.195515)" id="Fill-6" fill="#FFCE01" fill-rule="evenodd" stroke="none" />
        <path d="M0 9.19143L4.22146 9.19143L4.22146 0L0 0L0 9.19143Z" transform="translate(44.801926 55.195515)" id="Fill-8" fill="#FFCE01" fill-rule="evenodd" stroke="none" />
        <path d="M0 9.19143L4.22146 9.19143L4.22146 0L0 0L0 9.19143Z" transform="translate(62.528557 55.195515)" id="Fill-9" fill="#FFCE01" fill-rule="evenodd" stroke="none" />
        <path d="M0 1.86716L1.44032 1.86716L0.702632 0L0 1.86716Z" transform="translate(42.031918 92.01935)" id="Fill-10" fill="#162A53" fill-rule="evenodd" stroke="none" />
        <path d="M0.995439 0L0 2.64453L2.0414 2.64453L0.995439 0Z" transform="translate(39.54116 82.091)" id="Fill-11" fill="#162A53" fill-rule="evenodd" stroke="none" />
        <path d="M1.26711 0.145888C1.10936 0.0829962 0.94131 0.0427868 0.763461 0.0252597C0.586128 0.00824806 0.331985 0 0 0L0 3.76163C0 3.97711 0.0108256 4.13434 0.0319613 4.23332C0.0530969 4.33178 0.114957 4.40704 0.217543 4.45859C0.320128 4.50963 0.478903 4.53489 0.694899 4.53489C1.33412 4.53489 1.78622 4.31168 2.05068 3.86422C2.31513 3.41676 2.4471 2.90229 2.4471 2.3208C2.4471 1.7656 2.34142 1.30062 2.12955 0.925845C1.91768 0.550558 1.63002 0.290744 1.26711 0.145888" transform="translate(48.904514 90.796005)" id="Fill-12" fill="#162A53" fill-rule="evenodd" stroke="none" />
        <path d="M0 1.86716L1.44032 1.86716L0.702631 0L0 1.86716Z" transform="translate(29.024105 92.01935)" id="Fill-13" fill="#162A53" fill-rule="evenodd" stroke="none" />
        <path d="M0 0.229399L2.70691 2.54504L3.58275 0L0 0.229399Z" transform="translate(13.395575 41.272324)" id="Fill-14" fill="#162A53" fill-rule="evenodd" stroke="none" />
        <path d="M0 2.64453L2.04088 2.64453L0.995437 0L0 2.64453Z" transform="translate(77.21475 82.09105)" id="Fill-15" fill="#162A53" fill-rule="evenodd" stroke="none" />
        <path d="M97.4813 42.543C98.2313 42.1053 98.6968 41.6893 98.8767 41.2944C99.0572 40.8996 99.0365 40.3737 98.8149 39.718L98.5082 38.8107L91.0839 41.3202C90.6034 41.4826 90.2967 41.6775 90.1632 41.9038C90.0297 42.1301 90.0508 42.5043 90.2271 43.026L90.3189 43.2972L89.4585 43.5879L87.497 37.7833L88.3574 37.4926L88.4409 37.7411C88.6192 38.2674 88.8316 38.5772 89.0786 38.6695C89.3255 38.7613 89.6843 38.7277 90.1544 38.569L97.5782 36.06L97.2797 35.1764C97.1019 34.6491 96.9137 34.2815 96.7163 34.0717C96.5188 33.8619 96.2224 33.7305 95.8275 33.6768C95.4321 33.6237 94.996 33.6567 94.5192 33.7779L94.2233 32.9026L97.2148 31.8916L100.769 42.4079L97.7772 43.4188L97.4813 42.543ZM88.1635 85.07L81.4084 85.07L81.4084 84.5555C81.8744 84.5555 82.1749 84.4885 82.309 84.3545C82.443 84.2204 82.51 83.9885 82.51 83.6611L82.51 78.8963C82.51 78.6762 82.4878 78.5056 82.443 78.3849C82.3981 78.2638 82.295 78.17 82.1327 78.103C81.9708 78.0359 81.729 78.0019 81.4084 78.0019L81.4084 77.4874L85.2221 77.4874L85.2221 78.0019C84.9055 78.0019 84.6658 78.0334 84.5029 78.0968C84.3416 78.1607 84.2349 78.253 84.1849 78.3736C84.1344 78.4947 84.1096 78.669 84.1096 78.8963L84.1096 83.2585C84.1096 83.6008 84.1261 83.8472 84.1596 83.9967C84.1931 84.1452 84.2844 84.2586 84.4333 84.3349C84.5823 84.4112 84.8267 84.4493 85.1664 84.4493C85.5948 84.4493 85.9706 84.4168 86.2928 84.3519C86.6155 84.2859 86.914 84.1127 87.1872 83.8312C87.4619 83.5498 87.632 83.1183 87.6991 82.5368L88.2135 82.5368L88.1635 85.07ZM80.7264 92.4278C80.6552 92.6134 80.548 92.7907 80.4047 92.9603C80.2609 93.1304 80.0804 93.2686 79.8619 93.3748C79.6438 93.4815 79.3912 93.5351 79.1041 93.5351C78.8195 93.5351 78.5375 93.4732 78.2576 93.3495C77.9772 93.2258 77.7395 93.0417 77.5447 92.7969C77.4606 92.9917 77.4065 93.1716 77.3828 93.3376L77.0199 93.3376L77.0199 91.5061L77.3828 91.5061C77.4488 91.769 77.5395 92.0164 77.6555 92.2479C77.771 92.4793 77.9349 92.6788 78.1468 92.8459C78.3587 93.0129 78.6185 93.0969 78.9262 93.0969C79.1948 93.0969 79.4098 93.0232 79.5716 92.8757C79.7335 92.7283 79.8144 92.5427 79.8144 92.319C79.8144 92.1927 79.7897 92.0819 79.7397 91.9875C79.6897 91.8927 79.617 91.8081 79.5227 91.7329C79.4278 91.6581 79.2979 91.5777 79.1335 91.4921C78.969 91.4066 78.7814 91.3164 78.571 91.2215C78.2473 91.0689 77.9813 90.9153 77.7736 90.7601C77.5658 90.605 77.4086 90.4539 77.3024 90.308C77.1957 90.1616 77.122 90.0235 77.0812 89.8915C77.0405 89.76 77.0199 89.627 77.0199 89.493C77.0199 89.2533 77.0843 89.0172 77.2132 88.7842C77.3421 88.5517 77.5313 88.361 77.7797 88.212C78.0282 88.0635 78.3159 87.9888 78.6422 87.9888C78.8922 87.9888 79.1304 88.045 79.3567 88.1568C79.583 88.2687 79.7789 88.4218 79.9449 88.6167C79.9923 88.5058 80.0356 88.3507 80.0753 88.1506L80.4459 88.1506L80.4459 89.643L80.0753 89.643C79.8119 88.8296 79.3541 88.4228 78.7015 88.4228C78.4643 88.4228 78.2746 88.4857 78.1313 88.611C77.9875 88.7357 77.9158 88.8966 77.9158 89.094C77.9158 89.2497 77.9607 89.3842 78.0499 89.4987C78.1396 89.6131 78.2576 89.7116 78.4035 89.793C78.5494 89.8745 78.7855 89.9915 79.1118 90.1441C79.5067 90.3312 79.815 90.4931 80.0371 90.6297C80.2598 90.7663 80.448 90.939 80.6021 91.1468C80.7557 91.3545 80.8326 91.6061 80.8326 91.9004C80.8326 92.0664 80.7975 92.2422 80.7264 92.4278L80.7264 92.4278ZM77.4813 83.8452L77.1235 82.9502L74.6635 82.9502L74.4785 83.4426C74.3743 83.7189 74.3223 83.9178 74.3223 84.0416C74.3223 84.2648 74.4089 84.406 74.5816 84.4663C74.7553 84.5256 74.9574 84.5555 75.1888 84.5555L75.1888 85.07L72.5773 85.07L72.5773 84.5555C72.7866 84.5555 72.9629 84.5163 73.1088 84.4375C73.2536 84.3596 73.3928 84.2117 73.5253 83.9941C73.6578 83.7756 73.8001 83.4668 73.9526 83.0683L76.1394 77.3421L76.6704 77.3421L78.9798 83.2472C79.1474 83.6642 79.2706 83.9472 79.3489 84.0941C79.4273 84.2411 79.5356 84.355 79.6732 84.4349C79.8108 84.5153 80.0052 84.5555 80.2547 84.5555L80.2547 85.07L76.6817 85.07L76.6817 84.5555C76.9838 84.5555 77.2034 84.5339 77.3416 84.4911C77.4792 84.4483 77.5483 84.3467 77.5483 84.1864C77.5483 84.0746 77.5261 83.9612 77.4813 83.8452L77.4813 83.8452ZM75.3296 93.4361L70.5611 93.4361L70.5611 93.0732C70.89 93.0732 71.1019 93.0258 71.1968 92.9309C71.2916 92.8361 71.339 92.6732 71.339 92.4412L71.339 89.0786C71.339 88.926 71.3241 88.8069 71.2937 88.7213C71.2633 88.6357 71.1926 88.5687 71.0808 88.5198C70.9689 88.4713 70.7957 88.4465 70.5611 88.4465L70.5611 88.0836L75.0017 88.0836L75.0728 89.4734L74.7099 89.4734C74.628 89.1652 74.5341 88.945 74.4279 88.812C74.3212 88.679 74.2011 88.5976 74.0686 88.5672C73.9356 88.5373 73.7361 88.5218 73.4706 88.5218L72.468 88.5218L72.468 90.4127L73.0129 90.4127C73.1995 90.4127 73.3392 90.3962 73.431 90.3632C73.5232 90.3302 73.5877 90.2678 73.6243 90.1761C73.6614 90.0838 73.6861 89.9389 73.6995 89.7415L74.0784 89.7415L74.0784 91.5215L73.715 91.5215C73.7047 91.3241 73.6784 91.1792 73.6361 91.0854C73.5944 90.9921 73.5274 90.9297 73.4366 90.8983C73.3459 90.8663 73.2072 90.8509 73.0206 90.8509L72.468 90.8509L72.468 92.1097C72.468 92.32 72.4731 92.4742 72.4835 92.5716C72.4943 92.669 72.5226 92.75 72.5685 92.8144C72.6144 92.8789 72.6897 92.9258 72.7933 92.9546C72.8974 92.9835 73.0454 92.9979 73.2376 92.9979L73.6681 92.9979C73.8495 92.9979 74.0222 92.9747 74.1867 92.9289C74.3511 92.883 74.5125 92.7644 74.6702 92.5737C74.828 92.3829 74.9388 92.0834 75.0017 91.6757L75.3729 91.6757L75.3296 93.4361ZM70.0596 84.1307C69.7765 84.4246 69.4523 84.6787 69.0868 84.8911C68.7213 85.1035 68.2275 85.2097 67.6047 85.2097C66.9227 85.2097 66.2897 85.0437 65.7066 84.7122C65.1231 84.3797 64.6581 83.9168 64.3117 83.323C63.9648 82.7281 63.7915 82.0579 63.7915 81.3125C63.7915 80.7825 63.8854 80.2774 64.0735 79.7969C64.2622 79.3159 64.5303 78.8927 64.8787 78.5277C65.2277 78.1622 65.6432 77.8751 66.1263 77.6663C66.6083 77.4576 67.1372 77.3534 67.7114 77.3534C68.6584 77.3534 69.4409 77.6627 70.0596 78.2818C70.1415 78.121 70.2219 77.8885 70.3003 77.5823L70.8034 77.5823L70.8926 80.3732L70.356 80.3732C70.2591 79.8995 70.0843 79.4783 69.8302 79.1092C69.577 78.7401 69.276 78.4581 68.9275 78.2623C68.579 78.0664 68.2146 77.9684 67.8341 77.9684C67.4093 77.9684 67.0268 78.0849 66.6876 78.3174C66.349 78.5504 66.083 78.9056 65.8912 79.383C65.6989 79.8603 65.603 80.4547 65.603 81.1671C65.603 81.8605 65.6834 82.4373 65.8438 82.8977C66.0041 83.3575 66.2026 83.706 66.4392 83.9405C66.6758 84.1756 66.9134 84.3349 67.1516 84.4189C67.3903 84.5024 67.614 84.5442 67.8233 84.5442C68.2816 84.5442 68.6945 84.4215 69.0615 84.1756C69.4286 83.9297 69.7301 83.6189 69.9647 83.2446C70.1998 82.8698 70.356 82.4976 70.4343 82.129L70.9715 82.129L70.9715 84.9916L70.4457 84.9916C70.3673 84.6705 70.2384 84.3839 70.0596 84.1307L70.0596 84.1307ZM69.325 88.4465C69.0987 88.4465 68.928 88.4692 68.812 88.5141C68.6966 88.5584 68.6208 88.6239 68.5852 88.7095C68.5496 88.795 68.5321 88.9177 68.5321 89.0786L68.5321 92.4412C68.5321 92.5938 68.5491 92.7139 68.5832 92.8005C68.6172 92.8876 68.6904 92.9546 68.8022 93.0021C68.9141 93.0495 69.0883 93.0732 69.325 93.0732L69.325 93.4361L66.6098 93.4361L66.6098 93.0732C66.8361 93.0732 67.0073 93.051 67.1227 93.0077C67.2387 92.9644 67.314 92.8995 67.3495 92.8124C67.3851 92.7257 67.4032 92.602 67.4032 92.4412L67.4032 89.0786C67.4032 88.8471 67.3547 88.6837 67.2588 88.5888C67.1629 88.494 66.9464 88.4465 66.6098 88.4465L66.6098 88.0836L69.325 88.0836L69.325 88.4465ZM65.3772 88.4465C65.0483 88.4465 64.8354 88.495 64.7396 88.5909C64.6437 88.6873 64.5957 88.8497 64.5957 89.0786L64.5957 92.4412C64.5957 92.586 64.6117 92.7031 64.6432 92.7928C64.6746 92.8825 64.7473 92.951 64.8617 93C64.9762 93.0485 65.1484 93.0732 65.3772 93.0732L65.3772 93.4361L62.693 93.4361L62.693 93.0732C62.9245 93.0732 63.0941 93.05 63.2023 93.0041C63.3101 92.9577 63.3807 92.8907 63.4137 92.8026C63.4462 92.7144 63.4627 92.5938 63.4627 92.4412L63.4627 89.0863L61.4419 93.4361L61.2011 93.4361L59.1525 89.0863L59.1525 92.2716C59.1525 92.4402 59.1587 92.569 59.1706 92.6587C59.1824 92.7479 59.2123 92.8242 59.2613 92.8876C59.3098 92.9505 59.3866 92.9974 59.4917 93.0273C59.5969 93.0577 59.7433 93.0732 59.9299 93.0732L59.9299 93.4361L57.9488 93.4361L57.9488 93.0732C58.138 93.0732 58.2849 93.0572 58.3885 93.0258C58.4927 92.9943 58.5685 92.9469 58.6159 92.8835C58.6628 92.8206 58.6922 92.7448 58.7025 92.6567C58.7128 92.5685 58.7185 92.4402 58.7185 92.2716L58.7185 89.2404C58.7185 89.0141 58.7066 88.8507 58.6829 88.7507C58.6592 88.6507 58.5942 88.5754 58.4875 88.5239C58.3808 88.4728 58.2014 88.4465 57.9488 88.4465L57.9488 88.0836L59.9062 88.0836L61.6826 91.8612L63.4627 88.0836L65.3772 88.0836L65.3772 88.4465ZM56.7204 83.6415C56.6199 83.9044 56.4678 84.156 56.2647 84.3967C56.0616 84.6365 55.8054 84.8323 55.4955 84.9834C55.1862 85.1344 54.8285 85.2097 54.4223 85.2097C54.0197 85.2097 53.6201 85.1221 53.2227 84.9468C52.8257 84.7715 52.4896 84.5112 52.2133 84.1643C52.0937 84.44 52.0174 84.6952 51.9839 84.9298L51.4695 84.9298L51.4695 82.3352L51.9839 82.3352C52.0772 82.708 52.2056 83.059 52.37 83.3864C52.5345 83.7152 52.7659 83.9972 53.066 84.2338C53.366 84.4705 53.7346 84.589 54.1702 84.589C54.5506 84.589 54.8553 84.4849 55.0852 84.2761C55.3141 84.0668 55.4285 83.8044 55.4285 83.4874C55.4285 83.3085 55.393 83.1518 55.3223 83.0173C55.2517 82.8832 55.1491 82.7636 55.0151 82.6569C54.8805 82.5512 54.697 82.4373 54.464 82.3162C54.231 82.1945 53.9655 82.0672 53.6676 81.9332C53.2088 81.7172 52.8319 81.4986 52.5376 81.279C52.2432 81.0583 52.0205 80.8454 51.8695 80.6387C51.7184 80.4315 51.6143 80.2351 51.5566 80.0485C51.4983 79.8619 51.4695 79.6737 51.4695 79.4835C51.4695 79.1448 51.5612 78.8097 51.7437 78.4803C51.9262 78.1504 52.1937 77.8797 52.5463 77.6689C52.8984 77.4586 53.3057 77.3534 53.7676 77.3534C54.1222 77.3534 54.4594 77.4323 54.78 77.5911C55.1007 77.7493 55.3785 77.9663 55.6131 78.2421C55.6801 78.0859 55.742 77.8658 55.7976 77.5823L56.3234 77.5823L56.3234 79.6959L55.7976 79.6959C55.4249 78.5437 54.7764 77.9684 53.8516 77.9684C53.516 77.9684 53.2469 78.0566 53.0438 78.2344C52.8407 78.4112 52.7391 78.6396 52.7391 78.919C52.7391 79.1386 52.8025 79.3304 52.9294 79.4922C53.0557 79.6546 53.2227 79.7933 53.4299 79.9088C53.6361 80.0242 53.9712 80.1902 54.4336 80.4062C54.9924 80.6707 55.4301 80.9006 55.7445 81.0939C56.0595 81.2883 56.326 81.5321 56.5441 81.827C56.7626 82.1208 56.8714 82.4775 56.8714 82.8946C56.8714 83.1291 56.8209 83.3786 56.7204 83.6415L56.7204 83.6415ZM56.5188 93.4361L51.7504 93.4361L51.7504 93.0732C52.0793 93.0732 52.2912 93.0258 52.386 92.9309C52.4809 92.8361 52.5283 92.6732 52.5283 92.4412L52.5283 89.0786C52.5283 88.926 52.5134 88.8069 52.4829 88.7213C52.4525 88.6357 52.3819 88.5687 52.27 88.5198C52.1577 88.4713 51.985 88.4465 51.7504 88.4465L51.7504 88.0836L56.191 88.0836L56.2621 89.4734L55.8992 89.4734C55.8172 89.1652 55.7234 88.945 55.6167 88.812C55.51 88.679 55.3904 88.5976 55.2574 88.5672C55.1244 88.5373 54.9254 88.5218 54.6599 88.5218L53.6573 88.5218L53.6573 90.4127L54.2021 90.4127C54.3888 90.4127 54.5285 90.3962 54.6202 90.3632C54.7125 90.3302 54.7769 90.2678 54.8135 90.1761C54.8506 90.0838 54.8754 89.9389 54.8888 89.7415L55.2677 89.7415L55.2677 91.5215L54.9043 91.5215C54.8939 91.3241 54.8677 91.1792 54.8254 91.0854C54.7836 90.9921 54.7166 90.9297 54.6259 90.8983C54.5352 90.8663 54.3965 90.8509 54.2099 90.8509L53.6573 90.8509L53.6573 92.1097C53.6573 92.32 53.6624 92.4742 53.6727 92.5716C53.6835 92.669 53.7119 92.75 53.7578 92.8144C53.8037 92.8789 53.8789 92.9258 53.9825 92.9546C54.0867 92.9835 54.2346 92.9979 54.4269 92.9979L54.8573 92.9979C55.0388 92.9979 55.2115 92.9747 55.3759 92.9289C55.5404 92.883 55.7017 92.7644 55.8595 92.5737C56.0172 92.3829 56.1281 92.0834 56.191 91.6757L56.5621 91.6757L56.5188 93.4361ZM50.4812 73.6304L24.7607 73.6304C24.5746 73.6304 24.4241 73.4799 24.4241 73.2933C24.4241 73.1077 24.5746 72.9567 24.7607 72.9567L50.4812 72.9567C50.6673 72.9567 50.8179 73.1077 50.8179 73.2933C50.8179 73.4799 50.6673 73.6304 50.4812 73.6304L50.4812 73.6304ZM50.0998 91.8556C49.9678 92.1675 49.7982 92.4268 49.5904 92.635C49.3827 92.8428 49.1605 92.9995 48.9234 93.1046C48.4239 93.3258 47.812 93.4361 47.0882 93.4361L44.6447 93.4361L44.6447 93.0732C44.871 93.0732 45.0421 93.051 45.1581 93.0077C45.2736 92.9644 45.3494 92.8995 45.385 92.8124C45.4205 92.7257 45.4381 92.602 45.4381 92.4412L45.4381 89.0626C45.4381 88.8311 45.3906 88.6677 45.2963 88.5728C45.2014 88.4785 44.9844 88.4311 44.6447 88.4311L44.6447 88.0599L45.7932 88.0362C45.8329 88.0362 45.9933 88.0336 46.2747 88.0285C46.5562 88.0233 46.7196 88.0202 46.7644 88.0202C47.2037 88.0202 47.5769 88.0439 47.8831 88.0914C48.1898 88.1388 48.4708 88.2151 48.7259 88.3203C48.9605 88.4151 49.176 88.5476 49.3734 88.7172C49.5709 88.8868 49.7374 89.0806 49.8729 89.2976C50.0085 89.5147 50.1126 89.7508 50.1864 90.006C50.2601 90.2611 50.2967 90.5287 50.2967 90.8076C50.2967 91.1942 50.2312 91.5437 50.0998 91.8556L50.0998 91.8556ZM44.1261 84.9298L44.1261 82.3352L44.6406 82.3352C44.7334 82.708 44.8622 83.059 45.0262 83.3864C45.1906 83.7152 45.4226 83.9972 45.7221 84.2338C46.0226 84.4705 46.3907 84.589 46.8268 84.589C47.2073 84.589 47.5119 84.4849 47.7413 84.2761C47.9702 84.0668 48.0852 83.8044 48.0852 83.4874C48.0852 83.3085 48.0496 83.1518 47.979 83.0173C47.9078 82.8832 47.8053 82.7636 47.6712 82.6569C47.5367 82.5512 47.3537 82.4373 47.1201 82.3162C46.8877 82.1945 46.6222 82.0672 46.3237 81.9332C45.8654 81.7172 45.4886 81.4986 45.1937 81.279C44.8999 81.0583 44.6767 80.8454 44.5256 80.6387C44.3751 80.4315 44.2704 80.2351 44.2127 80.0485C44.155 79.8619 44.1261 79.6737 44.1261 79.4835C44.1261 79.1448 44.2173 78.8097 44.4004 78.4803C44.5828 78.1504 44.8499 77.8797 45.2025 77.6689C45.5546 77.4586 45.9623 77.3534 46.4242 77.3534C46.7789 77.3534 47.1155 77.4323 47.4367 77.5911C47.7568 77.7493 48.0347 77.9663 48.2697 78.2421C48.3367 78.0859 48.3981 77.8658 48.4543 77.5823L48.9796 77.5823L48.9796 79.6959L48.4543 79.6959C48.0816 78.5437 47.4331 77.9684 46.5082 77.9684C46.1727 77.9684 45.9036 78.0566 45.6999 78.2344C45.4968 78.4112 45.3953 78.6396 45.3953 78.919C45.3953 79.1386 45.4587 79.3304 45.5855 79.4922C45.7123 79.6546 45.8788 79.7933 46.086 79.9088C46.2928 80.0242 46.6273 80.1902 47.0897 80.4062C47.6485 80.6707 48.0857 80.9006 48.4012 81.0939C48.7161 81.2883 48.9827 81.5321 49.2002 81.827C49.4188 82.1208 49.5276 82.4775 49.5276 82.8946C49.5276 83.1291 49.4776 83.3786 49.377 83.6415C49.276 83.9044 49.1239 84.156 48.9208 84.3967C48.7177 84.6365 48.4615 84.8323 48.1522 84.9834C47.8424 85.1344 47.4846 85.2097 47.0789 85.2097C46.6758 85.2097 46.2763 85.1221 45.8788 84.9468C45.4824 84.7715 45.1458 84.5112 44.87 84.1643C44.7504 84.44 44.6741 84.6952 44.6406 84.9298L44.1261 84.9298ZM43.4915 93.4361L40.9692 93.4361L40.9692 93.0732C41.1821 93.0732 41.3377 93.0577 41.4352 93.0273C41.5326 92.9974 41.5811 92.9258 41.5811 92.8124C41.5811 92.7335 41.5651 92.6531 41.5336 92.5716L41.281 91.9401L39.5443 91.9401L39.4144 92.2876C39.3407 92.4819 39.3036 92.6232 39.3036 92.7098C39.3036 92.8675 39.3644 92.968 39.4871 93.0098C39.6093 93.0521 39.752 93.0732 39.9155 93.0732L39.9155 93.4361L38.072 93.4361L38.072 93.0732C38.2195 93.0732 38.3447 93.0454 38.4473 92.9902C38.5499 92.935 38.6478 92.8304 38.7411 92.6763C38.8344 92.5226 38.9355 92.3046 39.0432 92.0231L40.5861 87.981L40.9614 87.981L42.592 92.1494C42.71 92.4438 42.7971 92.6433 42.8523 92.7474C42.9074 92.8515 42.9837 92.9314 43.0812 92.9881C43.1786 93.0448 43.3152 93.0732 43.4915 93.0732L43.4915 93.4361ZM37.5153 85.07L34.9043 85.07L34.9043 84.5555C35.1125 84.5555 35.2898 84.5163 35.4352 84.4375C35.5806 84.3596 35.7193 84.2117 35.8517 83.9941C35.9842 83.7756 36.1265 83.4668 36.2796 83.0683L38.4659 77.3421L38.9974 77.3421L41.3063 83.2472C41.4743 83.6642 41.597 83.9472 41.6754 84.0941C41.7537 84.2411 41.862 84.355 41.9996 84.4349C42.1378 84.5153 42.3316 84.5555 42.5816 84.5555L42.5816 85.07L39.0082 85.07L39.0082 84.5555C39.3103 84.5555 39.5304 84.5339 39.668 84.4911C39.8057 84.4483 39.8753 84.3467 39.8753 84.1864C39.8753 84.0746 39.8526 83.9612 39.8082 83.8452L39.45 82.9502L36.9895 82.9502L36.8049 83.4426C36.7008 83.7189 36.6482 83.9178 36.6482 84.0416C36.6482 84.2648 36.7353 84.406 36.9085 84.4663C37.0823 84.5256 37.2838 84.5555 37.5153 84.5555L37.5153 85.07ZM36.607 93.3809L36.2358 93.3809C36.1806 93.1546 36.0899 92.952 35.9636 92.7732C35.7636 92.9809 35.5347 93.1598 35.2764 93.3098C35.0187 93.4598 34.6697 93.5351 34.2305 93.5351C33.749 93.5351 33.3026 93.4181 32.8902 93.1835C32.4783 92.9495 32.1504 92.6221 31.9061 92.2025C31.6612 91.7829 31.5385 91.3097 31.5385 90.7838C31.5385 90.4101 31.605 90.0534 31.738 89.7142C31.871 89.3745 32.0602 89.076 32.3061 88.8177C32.552 88.56 32.8458 88.3574 33.1866 88.2099C33.5273 88.0625 33.9001 87.9888 34.3052 87.9888C34.9738 87.9888 35.5265 88.2074 35.9636 88.644C36.0214 88.5311 36.0781 88.3666 36.1332 88.1506L36.4884 88.1506L36.5518 90.1204L36.1729 90.1204C36.1043 89.7863 35.9806 89.4889 35.8017 89.2286C35.6229 88.9677 35.41 88.7687 35.1641 88.6306C34.9182 88.4924 34.6604 88.4228 34.3924 88.4228C34.0923 88.4228 33.8227 88.5053 33.583 88.6698C33.3438 88.8342 33.1562 89.0853 33.0206 89.4219C32.885 89.759 32.8175 90.1786 32.8175 90.6813C32.8175 91.1705 32.8742 91.5777 32.9871 91.903C33.1005 92.2278 33.2407 92.4731 33.4077 92.6386C33.5748 92.8046 33.7423 92.917 33.9109 92.9763C34.0789 93.0356 34.2372 93.0649 34.3841 93.0649C34.7078 93.0649 34.9996 92.9783 35.2589 92.8046C35.5177 92.6309 35.7306 92.4118 35.8966 92.1473C36.0621 91.8829 36.1729 91.6205 36.2281 91.3597L36.607 91.3597L36.607 93.3809ZM27.9352 78.3849C27.8903 78.2638 27.7867 78.17 27.6243 78.103C27.4624 78.0359 27.2212 78.0019 26.9005 78.0019L26.9005 77.4874L30.7137 77.4874L30.7137 78.0019C30.3972 78.0019 30.158 78.0334 29.9951 78.0968C29.8332 78.1607 29.727 78.253 29.677 78.3736C29.626 78.4947 29.6013 78.669 29.6013 78.8963L29.6013 83.2585C29.6013 83.6008 29.6183 83.8472 29.6513 83.9967C29.6853 84.1452 29.7765 84.2586 29.9255 84.3349C30.0745 84.4112 30.3188 84.4493 30.658 84.4493C31.0869 84.4493 31.4622 84.4168 31.7849 84.3519C32.1071 84.2859 32.4056 84.1127 32.6793 83.8312C32.9536 83.5498 33.1242 83.1183 33.1912 82.5368L33.7057 82.5368L33.6552 85.07L26.9005 85.07L26.9005 84.5555C27.3666 84.5555 27.6666 84.4885 27.8006 84.3545C27.9352 84.2204 28.0022 83.9885 28.0022 83.6611L28.0022 78.8963C28.0022 78.6762 27.9795 78.5056 27.9352 78.3849L27.9352 78.3849ZM30.4838 93.4361L27.9614 93.4361L27.9614 93.0732C28.1743 93.0732 28.33 93.0577 28.4269 93.0273C28.5244 92.9974 28.5733 92.9258 28.5733 92.8124C28.5733 92.7335 28.5574 92.6531 28.5259 92.5716L28.2733 91.9401L26.5366 91.9401L26.4062 92.2876C26.333 92.4819 26.2959 92.6232 26.2959 92.7098C26.2959 92.8675 26.3567 92.968 26.4794 93.0098C26.6015 93.0521 26.7443 93.0732 26.9078 93.0732L26.9078 93.4361L25.0643 93.4361L25.0643 93.0732C25.2117 93.0732 25.337 93.0454 25.4396 92.9902C25.5422 92.935 25.6396 92.8304 25.7334 92.6763C25.8267 92.5226 25.9278 92.3046 26.0355 92.0231L27.5784 87.981L27.9532 87.981L29.5837 92.1494C29.7023 92.4438 29.7894 92.6433 29.8446 92.7474C29.8997 92.8515 29.976 92.9314 30.0735 92.9881C30.1704 93.0448 30.3075 93.0732 30.4838 93.0732L30.4838 93.4361ZM24.2096 84.1307C23.9261 84.4246 23.6018 84.6787 23.2363 84.8911C22.8708 85.1035 22.3775 85.2097 21.7548 85.2097C21.0723 85.2097 20.4392 85.0437 19.8562 84.7122C19.2731 84.3797 18.8076 83.9168 18.4612 83.323C18.1143 82.7281 17.9411 82.0579 17.9411 81.3125C17.9411 80.7825 18.0349 80.2774 18.2231 79.7969C18.4117 79.3159 18.6803 78.8927 19.0283 78.5277C19.3773 78.1622 19.7933 77.8751 20.2758 77.6663C20.7583 77.4576 21.2867 77.3534 21.861 77.3534C22.808 77.3534 23.5905 77.6627 24.2096 78.2818C24.2916 78.121 24.3715 77.8885 24.4498 77.5823L24.953 77.5823L25.0427 80.3732L24.506 80.3732C24.4091 79.8995 24.2338 79.4783 23.9802 79.1092C23.7266 78.7401 23.4255 78.4581 23.077 78.2623C22.7286 78.0664 22.3641 77.9684 21.9842 77.9684C21.5589 77.9684 21.1764 78.0849 20.8377 78.3174C20.4985 78.5504 20.2325 78.9056 20.0407 79.383C19.849 79.8603 19.7526 80.4547 19.7526 81.1671C19.7526 81.8605 19.833 82.4373 19.9933 82.8977C20.1536 83.3575 20.3521 83.706 20.5892 83.9405C20.8253 84.1756 21.063 84.3349 21.3017 84.4189C21.5403 84.5024 21.7635 84.5442 21.9728 84.5442C22.4311 84.5442 22.844 84.4215 23.2111 84.1756C23.5781 83.9297 23.8797 83.6189 24.1142 83.2446C24.3493 82.8698 24.506 82.4976 24.5839 82.129L25.121 82.129L25.121 84.9916L24.5952 84.9916C24.5168 84.6705 24.3885 84.3839 24.2096 84.1307L24.2096 84.1307ZM16.4147 45.8891L15.5564 45.5932C15.7832 44.9339 15.4115 44.1859 14.4418 43.3503L7.42171 37.3282L7.73307 36.4229L16.9859 35.9296C17.9019 35.8811 18.4865 35.7538 18.7396 35.5466C18.9927 35.3393 19.1608 35.1151 19.2443 34.8723L20.1026 35.1677L18.3117 40.3732L17.4529 40.0784C17.6148 39.6087 17.6699 39.302 17.6189 39.1572C17.5673 39.0133 17.472 38.9169 17.3333 38.869C17.2096 38.8262 17.0307 38.8169 16.7977 38.8406L16.5234 38.8582L15.6538 38.8968L14.5439 42.1223L14.9934 42.5018C15.31 42.7724 15.543 42.9332 15.6925 42.9848C15.9451 43.0714 16.1507 43.0472 16.31 42.9116C16.4693 42.776 16.6152 42.5146 16.7482 42.128L17.607 42.4234L16.4147 45.8891ZM18.0071 20.8083C18.0581 19.8871 18.404 19.1102 19.0443 18.4777C19.7144 17.8138 20.5073 17.4756 21.4212 17.4611C21.3836 17.2684 21.2712 17.0271 21.0836 16.7358L21.7527 16.075L24.0534 18.4014L23.4018 19.0458C22.7755 18.6447 22.1347 18.4391 21.4795 18.4272C20.8238 18.4164 20.2923 18.6118 19.885 19.0144C19.5788 19.317 19.4201 19.6433 19.4087 19.9923C19.3969 20.3408 19.518 20.6439 19.7706 20.8996C19.9665 21.097 20.2057 21.2228 20.4887 21.2769C20.7722 21.3305 21.0671 21.3145 21.3738 21.2295C21.6811 21.1444 22.3022 20.9346 23.2374 20.6006C24.0797 20.3047 24.7437 20.1273 25.2298 20.0681C25.7159 20.0093 26.2 20.0619 26.6809 20.2263C27.1624 20.3913 27.5887 20.6619 27.9609 21.0377C28.6507 21.7357 28.9672 22.5719 28.91 23.5446C28.8522 24.5184 28.4666 25.3576 27.7532 26.0634C27.3465 26.466 26.8634 26.7742 26.3051 26.9892C25.7463 27.2042 25.2112 27.2851 24.6983 27.232C24.7818 27.4949 24.9267 27.7733 25.1334 28.0676L24.4354 28.7579L21.7666 26.0587L22.4646 25.369C23.4559 25.9835 24.3163 26.2716 25.0452 26.2335C25.7742 26.1953 26.3634 25.953 26.8134 25.5082C27.1469 25.1788 27.315 24.8174 27.3171 24.4235C27.3191 24.0302 27.1882 23.6998 26.9232 23.4327C26.7356 23.2425 26.4856 23.1142 26.1737 23.0466C25.8618 22.9791 25.3576 23.059 24.6627 23.2869C23.3255 23.7271 22.3976 23.9983 21.8785 24.1014C21.3594 24.2045 20.8434 24.1869 20.3315 24.0493C19.8196 23.9116 19.3546 23.6312 18.936 23.2085C18.2653 22.5301 17.9555 21.73 18.0071 20.8083L18.0071 20.8083ZM35.9399 9.17391C36.5704 7.74493 37.7462 6.76754 39.468 6.24327C40.7568 5.85045 41.979 5.94324 43.1353 6.51958C43.174 6.21698 43.1879 5.8685 43.1755 5.4731L44.0364 5.21071L45.3401 9.09761L44.4792 9.36C43.8998 8.37333 43.2358 7.69647 42.4878 7.3284C41.7403 6.96085 40.9676 6.89796 40.1691 7.14128C39.251 7.42119 38.6695 7.99134 38.4246 8.85275C38.1798 9.71416 38.2901 10.9091 38.7556 12.4376C39.0829 13.5124 39.4257 14.3387 39.7845 14.9166C40.1428 15.4945 40.6202 15.878 41.2166 16.0662C41.8125 16.2554 42.4033 16.2611 42.9874 16.0827C43.7596 15.8476 44.3663 15.3687 44.8076 14.647C45.2494 13.9258 45.435 12.9737 45.3659 11.7922L46.2345 11.5277L47.448 15.5105L46.5794 15.7749C46.3515 15.3832 46.0994 15.0888 45.8231 14.8934C45.2118 16.0492 44.1838 16.8467 42.7384 17.2874C41.0955 17.788 39.6175 17.6509 38.304 16.8766C36.99 16.1028 36.1085 14.9775 35.659 13.5005C35.2156 12.0453 35.3094 10.6029 35.9399 9.17391L35.9399 9.17391ZM60.1944 62.0538L64.4158 62.0538L64.4158 52.8623L60.1944 52.8623L60.1944 62.0538ZM51.3313 62.0538L55.5528 62.0538L55.5528 52.8623L51.3313 52.8623L51.3313 62.0538ZM42.4682 62.0538L46.6897 62.0538L46.6897 52.8623L42.4682 52.8623L42.4682 62.0538ZM53.3933 72.1798C54.0135 72.1798 54.5161 72.6824 54.5161 73.3026C54.5161 73.9227 54.0135 74.4254 53.3933 74.4254C52.7732 74.4254 52.2705 73.9227 52.2705 73.3026C52.2705 72.6824 52.7732 72.1798 53.3933 72.1798L53.3933 72.1798ZM56.0971 73.6304C55.911 73.6304 55.7605 73.4799 55.7605 73.2933C55.7605 73.1077 55.911 72.9567 56.0971 72.9567L81.8177 72.9567C82.0038 72.9567 82.1543 73.1077 82.1543 73.2933C82.1543 73.4799 82.0038 73.6304 81.8177 73.6304L56.0971 73.6304ZM61.1614 84.1694C61.2099 84.2926 61.3135 84.3875 61.4718 84.455C61.6306 84.522 61.8775 84.5555 62.2126 84.5555L62.2126 85.07L58.3659 85.07L58.3659 84.5555C58.686 84.5555 58.9283 84.5246 59.0927 84.4638C59.2567 84.4019 59.3639 84.3096 59.4139 84.1864C59.4644 84.0637 59.4897 83.8879 59.4897 83.6611L59.4897 78.8963C59.4897 78.5685 59.4216 78.3375 59.2855 78.2035C59.1494 78.0689 58.8427 78.0019 58.3659 78.0019L58.3659 77.4874L62.2126 77.4874L62.2126 78.0019C61.8924 78.0019 61.6501 78.0334 61.4857 78.0968C61.3218 78.1607 61.2145 78.253 61.1645 78.3736C61.114 78.4947 61.0888 78.669 61.0888 78.8963L61.0888 83.6611C61.0888 83.8771 61.113 84.0467 61.1614 84.1694L61.1614 84.1694ZM87.9027 53.3412C87.9027 58.1633 86.9145 62.7543 85.1303 66.9237L75.2115 66.9237L75.2115 66.8547L75.2115 63.6168L71.9051 63.6168L71.9051 61.8703L68.8033 61.8703L68.8033 52.8623L73.7001 52.8623L73.7001 52.0133L74.7553 52.054L74.7841 49.7255L53.3407 38.1684L31.8659 49.7183L31.8659 52.0463L32.9819 52.0463L32.9819 52.8623L37.8782 52.8623L37.8782 61.8703L34.7764 61.8703L34.7764 63.6168L31.47 63.6168L31.47 66.8547L31.47 66.9237L21.5517 66.9237C19.7675 62.7543 18.7788 58.1633 18.7788 53.3412C18.7788 34.2532 34.2527 18.7788 53.3407 18.7788C72.4288 18.7788 87.9027 34.2532 87.9027 53.3412L87.9027 53.3412ZM56.1502 14.3485L56.3502 14.3908C56.8895 14.5047 57.2611 14.479 57.4663 14.3135C57.6715 14.148 57.8256 13.8222 57.9282 13.3366L59.2896 6.90208C59.3943 6.40617 59.3835 6.04325 59.2567 5.81231C59.1298 5.58239 58.802 5.41124 58.2741 5.29938L58.0741 5.25711L58.2586 4.38488L67.5021 6.3407L67.0676 9.18319L66.1711 8.99348C66.1149 8.46921 66.019 8.04031 65.8829 7.70781C65.7474 7.37531 65.5881 7.14643 65.4056 7.02116C65.2231 6.89641 64.8942 6.78351 64.4194 6.68299L62.395 6.25461L61.6027 10.0003L62.611 10.2137C63.091 10.3152 63.4286 10.292 63.6245 10.1441C63.8204 9.99562 63.9854 9.65745 64.1194 9.12803L65.0236 9.31928L64.2452 13.001L63.341 12.8098C63.3606 12.7412 63.3745 12.6912 63.3812 12.6592C63.4462 12.3499 63.44 12.0556 63.3626 11.7772C63.2848 11.4988 62.9765 11.3029 62.4378 11.1885L61.3975 10.9684L60.83 13.6495C60.7217 14.1619 60.68 14.5027 60.7057 14.6728C60.731 14.8424 60.8609 15.0063 61.0949 15.1646C61.329 15.3228 61.7074 15.4574 62.2306 15.5682C62.9399 15.7182 63.4802 15.7404 63.8508 15.6352C64.2215 15.529 64.5859 15.2831 64.9437 14.896C65.3015 14.5089 65.5922 14.0774 65.8154 13.6011L66.7119 13.7902L65.8866 17.3364L55.9626 15.2367L56.1502 14.3485ZM73.8666 20.0433C74.1326 20.2773 74.4207 20.4165 74.7305 20.4609C75.0404 20.5047 75.2966 20.465 75.4992 20.3423C75.7018 20.2191 75.9641 19.9758 76.2848 19.6113L80.0258 15.363C80.7722 14.5156 80.748 13.7428 79.9541 13.0433L80.5547 12.3623L83.3657 14.8383L83.44 23.9508L86.1268 20.8996C86.9274 19.9907 86.9444 19.1994 86.1788 18.5257L86.7794 17.8442L89.7688 20.4768L89.1688 21.1583C88.96 20.9748 88.7141 20.8599 88.4311 20.814C88.1481 20.7681 87.8955 20.8057 87.6733 20.9258C87.4511 21.0465 87.1903 21.2764 86.8913 21.6166L81.263 28.0068L80.4774 27.315L80.4439 16.4729L77.0761 20.2974C76.5353 20.9109 76.2992 21.4042 76.3673 21.7769C76.4353 22.1497 76.6431 22.4889 76.9915 22.7951L76.3915 23.476L73.2665 20.7243L73.8666 20.0433ZM53.3407 0C23.8812 0 0 23.8817 0 53.3412C0 82.8007 23.8812 106.682 53.3407 106.682C82.7997 106.682 106.681 82.8007 106.681 53.3412C106.681 23.8817 82.7997 0 53.3407 0L53.3407 0Z" transform="translate(2.3336344 2.3331707)" id="Fill-16" fill="#142C54" fill-rule="evenodd" stroke="none" />
      </g>
    </g>
  </g>
</svg>